<svg clip-rule="evenodd" fill-rule="evenodd" stroke-linejoin="round" stroke-miterlimit="2" viewBox="0 0 24 24"
     xmlns="http://www.w3.org/2000/svg">
    <path d="m18.39 8.428c-.835.186-2.113.51-2.845.866-1.089.529-1.874 1.358-1.874 2.76 0 4.089 3.073 7.956 3.073 8.293 0 .131-.137.203-.227.113 0-.001-.001-.002-.001-.002-.673-.69-1.997-2.747-2.606-3.738v-.001c-.404-.653-.951-1.448-1.903-1.448h-.003c-.961 0-1.509.791-1.914 1.449-2.274 3.698-2.707 3.738-2.607 3.738-.094.095-.228.015-.228-.111 0-.285 3.073-4.285 3.073-8.293 0-1.336-.697-2.139-1.744-2.678-.833-.428-1.923-.669-2.956-.944-.009-.002-.017-.004-.026-.006-.138-.032-.138-.272.011-.299 1.098.25 3.412.923 6.387.923 2.94 0 5.295-.669 6.389-.923.145.029.152.265.001.301m-6.392-4.928c.858 0 1.552.7 1.552 1.562s-.694 1.563-1.552 1.563c-.856 0-1.55-.701-1.55-1.563s.694-1.562 1.55-1.562m6.367 3.125c-.427 0-2.112.584-4.474.821.699-.561 1.157-1.414 1.157-2.384 0-1.691-1.366-3.062-3.05-3.062-1.681 0-3.049 1.371-3.049 3.062 0 .97.458 1.824 1.158 2.385-2.361-.238-4.018-.822-4.472-.822-.897 0-1.635.738-1.635 1.653 0 .765.536 1.437 1.256 1.608 1.805.478 3.573.755 3.573 2.168 0 3.145-2.041 6.072-2.852 7.462-.002.003-.004.006-.005.009-.142.251-.216.536-.216.822 0 .916.737 1.653 1.635 1.653.437 0 .853-.174 1.165-.494.722-.741 2.157-2.937 2.811-3.999.12-.195.238-.383.371-.537.082-.096.151-.199.267-.199.113 0 .176.105.256.198.133.154.252.343.373.539.652 1.06 2.086 3.255 2.809 3.997.31.319.724.495 1.167.495.896 0 1.634-.737 1.634-1.653 0-.282-.07-.562-.226-.837-.002-.002-.003-.005-.005-.008-.83-1.426-2.843-4.3-2.843-7.448 0-1.516 2.067-1.772 3.567-2.167.728-.173 1.263-.846 1.263-1.609 0-.915-.739-1.653-1.635-1.653"/>
</svg>