<svg xmlns="http://www.w3.org/2000/svg" viewBox="0 0 32 32">
    <g id="message_icon">
        <path d="M27.1,3.8H2.9c-1.5,0-2.8,1.3-2.8,2.8v16.7c0,1.5,1.3,2.8,2.8,2.8h24.1c1.5,0,2.8-1.3,2.8-2.8V6.6  C29.9,5.1,28.6,3.8,27.1,3.8z M28.4,23.4c0,0.7-0.6,1.3-1.3,1.3H2.9c-0.7,0-1.3-0.6-1.3-1.3V6.6c0-0.7,0.6-1.3,1.3-1.3h24.1  c0.7,0,1.3,0.6,1.3,1.3V23.4z M23.5,9.4l-8.4,7.9L6.7,9.4c-0.3-0.3-0.8-0.3-1.1,0c-0.3,0.3-0.3,0.8,0,1.1l5,4.7L6.8,19  c-0.3,0.3-0.3,0.8,0,1.1c0.1,0.1,0.3,0.2,0.5,0.2c0.2,0,0.4-0.1,0.5-0.2l3.9-3.9c0,0,0,0,0,0l2.9,2.7c0.1,0.1,0.3,0.2,0.5,0.2  c0.2,0,0.4-0.1,0.5-0.2l2.9-2.8c0,0,0,0.1,0.1,0.1l3.9,3.9c0.1,0.1,0.3,0.2,0.5,0.2c0.2,0,0.4-0.1,0.5-0.2c0.3-0.3,0.3-0.8,0-1.1  l-3.9-3.9c0,0,0,0-0.1,0l4.9-4.6c0.3-0.3,0.3-0.8,0-1.1S23.8,9.1,23.5,9.4z"/>
    </g>
    <g id="location_icon">
        <path d="M15.1,0.3c-6,0-10,4-10,9.8c0,7.8,7.2,17.5,9.1,19.4c0.1,0.1,0.3,0.2,0.5,0.2c0,0,0,0,0,0  c0.2,0,0.4-0.1,0.5-0.3c1-1.1,9.6-11.1,9.6-19.3C24.9,3.3,20,0.3,15.1,0.3z M14.7,27.8c-2.3-2.7-8.1-11.1-8.1-17.7  c0-5.1,3.3-8.3,8.5-8.3c3.8,0,8.3,2.2,8.3,8.3C23.4,16,18.2,23.8,14.7,27.8z M15,6.1c-2.2,0-4,1.8-4,4c0,2.2,1.8,4,4,4s4-1.8,4-4  C19,7.9,17.2,6.1,15,6.1z M15,12.6c-1.4,0-2.5-1.1-2.5-2.5c0-1.4,1.1-2.5,2.5-2.5s2.5,1.1,2.5,2.5C17.5,11.5,16.4,12.6,15,12.6z"/>
    </g>
    <g id="call_icon">
        <path d="M23.7,14.9c0,0.4,0.3,0.8,0.8,0.8s0.8-0.3,0.8-0.8c0-5.5-4.5-10-10-10c-0.4,0-0.8,0.3-0.8,0.8  s0.3,0.8,0.8,0.8C19.9,6.4,23.7,10.2,23.7,14.9z M14.5,9.7c0,0.4,0.3,0.8,0.8,0.8c2.4,0,4.3,1.9,4.3,4.3c0,0.4,0.3,0.8,0.8,0.8  s0.8-0.3,0.8-0.8c0-3.2-2.6-5.8-5.8-5.8C14.8,9,14.5,9.3,14.5,9.7z M15.2,0.2c-0.4,0-0.8,0.3-0.8,0.8s0.3,0.8,0.8,0.8  c7.2,0,13.1,5.9,13.1,13.1c0,0.4,0.3,0.8,0.8,0.8s0.8-0.3,0.8-0.8C29.8,6.8,23.3,0.2,15.2,0.2z M19.4,17.7c-0.1-0.1-0.3-0.2-0.5-0.2  h0c-0.2,0-0.4,0.1-0.5,0.2l-1.6,1.6c-0.6,0.6-1.6,0.6-2.2,0l-3.7-3.4c-0.6-0.6-0.6-1.6,0-2.2l1.8-1.8c0.3-0.3,0.3-0.8,0-1.1L5.3,3.5  C5.2,3.4,5,3.3,4.8,3.3c-0.2,0-0.4,0.1-0.5,0.2c-0.1,0.1-2.4,2.4-2.9,3C0,7.9-0.2,10.8,0.8,13.3c2.2,5.5,9.5,12.2,15.6,15.9  c0.5,0.3,1.7,0.6,2.9,0.6c0,0,0,0,0,0c1.1,0,2.7-0.2,4.1-1.4c1.3-1.1,2.8-2.7,2.9-2.8c0.3-0.3,0.3-0.8,0-1L19.4,17.7z M22.4,27.2  c-1,0.9-2.2,1-3.1,1c0,0,0,0,0,0c-1.1,0-2-0.3-2.1-0.4C10.3,23.7,4,17.4,2.2,12.7c-0.8-2.1-0.5-4.4,0.2-5.2C2.8,7.1,4,5.9,4.8,5.1  l6.2,6.2l-1.3,1.3c-1.2,1.2-1.2,3.1,0,4.3l3.7,3.4c1.1,1.1,3.1,1.1,4.3,0l1.1-1.1l5.8,5.8C24.1,25.7,23.2,26.6,22.4,27.2z"/>    </g>
    <g id="me_icon">
        <path d="m18.39 8.428c-.835.186-2.113.51-2.845.866-1.089.529-1.874 1.358-1.874 2.76 0 4.089 3.073 7.956 3.073 8.293 0 .131-.137.203-.227.113 0-.001-.001-.002-.001-.002-.673-.69-1.997-2.747-2.606-3.738v-.001c-.404-.653-.951-1.448-1.903-1.448h-.003c-.961 0-1.509.791-1.914 1.449-2.274 3.698-2.707 3.738-2.607 3.738-.094.095-.228.015-.228-.111 0-.285 3.073-4.285 3.073-8.293 0-1.336-.697-2.139-1.744-2.678-.833-.428-1.923-.669-2.956-.944-.009-.002-.017-.004-.026-.006-.138-.032-.138-.272.011-.299 1.098.25 3.412.923 6.387.923 2.94 0 5.295-.669 6.389-.923.145.029.152.265.001.301m-6.392-4.928c.858 0 1.552.7 1.552 1.562s-.694 1.563-1.552 1.563c-.856 0-1.55-.701-1.55-1.563s.694-1.562 1.55-1.562m6.367 3.125c-.427 0-2.112.584-4.474.821.699-.561 1.157-1.414 1.157-2.384 0-1.691-1.366-3.062-3.05-3.062-1.681 0-3.049 1.371-3.049 3.062 0 .97.458 1.824 1.158 2.385-2.361-.238-4.018-.822-4.472-.822-.897 0-1.635.738-1.635 1.653 0 .765.536 1.437 1.256 1.608 1.805.478 3.573.755 3.573 2.168 0 3.145-2.041 6.072-2.852 7.462-.002.003-.004.006-.005.009-.142.251-.216.536-.216.822 0 .916.737 1.653 1.635 1.653.437 0 .853-.174 1.165-.494.722-.741 2.157-2.937 2.811-3.999.12-.195.238-.383.371-.537.082-.096.151-.199.267-.199.113 0 .176.105.256.198.133.154.252.343.373.539.652 1.06 2.086 3.255 2.809 3.997.31.319.724.495 1.167.495.896 0 1.634-.737 1.634-1.653 0-.282-.07-.562-.226-.837-.002-.002-.003-.005-.005-.008-.83-1.426-2.843-4.3-2.843-7.448 0-1.516 2.067-1.772 3.567-2.167.728-.173 1.263-.846 1.263-1.609 0-.915-.739-1.653-1.635-1.653"/>
    </g>
</svg>